<!-- Created with Inkscape (http://www.inkscape.org/) -->
<svg xmlns:rdf="http://www.w3.org/1999/02/22-rdf-syntax-ns#" xmlns="http://www.w3.org/2000/svg" version="1.1" xmlns:cc="http://creativecommons.org/ns#" xmlns:dc="http://purl.org/dc/elements/1.1/" viewBox="0 0 692.03 316.23">
 <metadata>
  <rdf:RDF>
   <cc:Work rdf:about="">
    <dc:format>image/svg+xml</dc:format>
    <dc:type rdf:resource="http://purl.org/dc/dcmitype/StillImage"/>
    <dc:title/>
   </cc:Work>
  </rdf:RDF>
 </metadata>
 <g transform="translate(-3.7842419,-249.9607)">
  <g transform="matrix(0.62129984,0,0,-0.62129984,-312.63806,685.34765)">
   <g stroke-linejoin="round" transform="matrix(0.1,0,0,0.1,469.06269,13.795961)" stroke="#000" stroke-linecap="butt" stroke-dasharray="none" stroke-miterlimit="10" stroke-width="6.66666985" fill="none">
    <path d="m1068,2316,4550.4,0,0,4550.4-4550.4,0,0-4550.4,4550.4,0m-4550.4,0,4550.4,0m-4550.4,0,0,60m228-60,0,60m225.6-60,0,122.4m-108-297.6,103.2,0m91.2,57.6,0-110.4m7.2,122.4,0-122.4m0,122.4-64.8-86.4,93.6,0m-52.8-36,40.8,0m117.6,228,0,60m228-60,0,60m228-60,0,60m228-60,0,122.4m-110.4-297.6,103.2,0m45.6,45.6,7.2-4.8-7.2-7.2-4.8,7.2,0,4.8,4.8,12,7.2,7.2,16.8,4.8,24,0,16.8-4.8,4.8-7.2,7.2-12,0-12-7.2-9.6-16.8-12-28.8-12-12-4.8-12-12-4.8-16.8,0-19.2m52.8,122.4,12-4.8,4.8-7.2,4.8-12,0-12-4.8-9.6-16.8-12-24-12m-28.8-40.8,4.8,7.2,12,0,28.8-12,19.2,0,9.6,4.8,7.2,7.2m-64.8,0,28.8-19.2,24,0,4.8,7.2,7.2,12,0,9.6m110.4,199.2,0,60m228-60,0,60m228-60,0,60m228-60,0,122.4m-7.2-228-16.8-4.8-12-19.2-4.8-28.8,0-16.8,4.8-28.8,12-16.8,16.8-7.2,12,0,16.8,7.2,12,16.8,7.2,28.8,0,16.8-7.2,28.8-12,19.2-16.8,4.8-12,0-9.6-4.8-7.2-7.2-4.8-12-7.2-28.8,0-16.8,7.2-28.8,4.8-12,7.2-4.8,9.6-7.2m12,0,12,7.2,4.8,4.8,7.2,12,4.8,28.8,0,16.8-4.8,28.8-7.2,12-4.8,7.2-12,4.8m223.2,105.6,0,60m228-60,0,60m225.6-60,0,60m228-60,0,122.4m-33.6-252,4.8-4.8-4.8-7.2-7.2,7.2,0,4.8,7.2,12,4.8,7.2,16.8,4.8,24,0,16.8-4.8,7.2-7.2,4.8-12,0-12-4.8-9.6-19.2-12-28.8-12-9.6-4.8-12-12-7.2-16.8,0-19.2m52.8,122.4,12-4.8,4.8-7.2,7.2-12,0-12-7.2-9.6-16.8-12-24-12m-28.8-40.8,7.2,7.2,12,0,28.8-12,16.8,0,12,4.8,4.8,7.2m-62.4,0,28.8-19.2,21.6,0,7.2,7.2,4.8,12,0,9.6m187.2,199.2,0,60m228-60,0,60m228-60,0,60m225.6-60,0,122.4m12-240,0-110.4m7.2,122.4,0-122.4m0,122.4-64.8-86.4,93.6,0m-52.8-36,40.8,0m192,228,0,60m228-60,0,60m-4550.4,4490.4h4550.4m-4550.4,0,0-62.4m228,62.4,0-62.4m225.6,62.4,0-122.4m228,122.4,0-62.4m228,62.4,0-62.4m228,62.4,0-62.4m228,62.4,0-122.4m225.6,122.4,0-62.4m228,62.4,0-62.4m228,62.4,0-62.4m228,62.4,0-122.4m228,122.4,0-62.4m228,62.4,0-62.4m225.6,62.4,0-62.4m228,62.4,0-122.4m228,122.4,0-62.4m228,62.4,0-62.4m228,62.4,0-62.4m225.6,62.4,0-122.4m228,122.4,0-62.4m228,62.4,0-62.4m-4550.4-4488v4550.4m0-4550.4,60,0m-60,324,60,0m-60,326.4,60,0m-60,324,122.4,0m-292.8,60-16.801-4.8-12-16.8-4.801-28.8,0-19.2,4.801-28.8,12-16.8,16.801-4.8,12,0,16.796,4.8,12,16.8,7.204,28.8,0,19.2-7.204,28.8-12,16.8-16.796,4.8-12,0-9.602-4.8-7.199-4.8-4.801-12-7.199-28.8,0-19.2,7.199-28.8,4.801-9.6,7.199-7.2,9.602-4.8m12,0,12,4.8,4.796,7.2,7.204,9.6,4.796,28.8,0,19.2-4.796,28.8-7.204,12-4.796,4.8-12,4.8m158.4,266.4,60,0m-60,324,60,0m-60,324,60,0m-60,326.4,60,0m-60,324,122.4,0m-465.6,62.4-16.801-7.2-12-16.8-4.801-28.8,0-16.8,4.801-28.8,12-19.2,16.801-4.8,12,0,16.801,4.8,12,19.2,4.796,28.8,0,16.8-4.796,28.8-12,16.8-16.801,7.2-12,0-12-7.2-4.801-4.8-4.801-12-7.199-28.8,0-16.8,7.199-28.8,4.801-12,4.801-7.2,12-4.8m12,0,12,4.8,4.801,7.2,7.199,12,4.801,28.8,0,16.8-4.801,28.8-7.199,12-4.801,4.8-12,7.2m81.597-110.4-7.199-7.2,7.199-4.8,4.801,4.8-4.801,7.2m57.6,110.4-12-57.6l12,9.6,16.801,7.2h16.801l16.796-7.2,12-9.6,7.204-19.2v-9.6l-7.204-19.2-12-12-16.796-4.8h-16.801l-16.801,4.8-7.199,7.2-4.801,12v4.8l4.801,7.2,7.199-7.2-7.199-4.8m40.801,57.6,12-7.2,12-9.6,4.796-19.2,0-9.6-4.796-19.2-12-12-12-4.8m-33.6,122.4h57.602m-57.602-7.2,28.801,0,28.801,7.2m134.4,264,60,0m-60,324,60,0m-60,326.4,60,0m-60,324,60,0m-60,326.4,122.4,0m-309.6,36,12,7.2,16.801,16.8,0-122.4m-4.801,115.2,0-115.2m-24,0,52.801,0m134.4,386.4,60,0m4490.4-4550.4v4550.4m0-4550.4-62.4,0m62.4,324-62.4,0m62.4,326.4-62.4,0m62.4,324-122.4,0m122.4,326.4-62.4,0m62.4,324-62.4,0m62.4,324-62.4,0m62.4,326.4-62.4,0"/>
    <path d="m5618.4,4915.2-122.4,0m122.4,326.4-62.4,0m62.4,324-62.4,0m62.4,326.4-62.4,0m62.4,324-62.4,0m62.4,326.4-122.4,0m122.4,324-62.4,0"/>
    <path d="m3297.6,1984.8,48-81.6m-43.2,81.6,48-81.6m16.8,81.6-86.4-81.6m4.8,81.6,36,0m21.6,0,36,0m-108-81.6,33.6,0m24,0,33.6,0"/>
    <path d="m405.6,3511.2,122.4,0m-122.4,4.8,122.4,0m-122.4-21.6,0,38.4m122.4-38.4v38.4m-81.602,40.8,81.602,0m-81.602,7.2,81.602,0m-64.801,0-9.597,9.6-7.204,19.2,0,12,7.204,16.8,9.597,4.8,64.801,0m-81.602-21.6,7.204,9.6,9.597,7.2,64.801,0m-81.602-81.6,0,24m81.602-24,0,40.8m0,24,0,38.4m-122.4,40.8,98.398,0,19.199,7.2,4.801,9.6,0,12-4.801,12-12,4.8m-105.6-38.4,98.398,0,19.199,4.8,4.801,4.8m-81.602-33.6,0,45.6m36,52.8,0,69.6-12,0-12-7.2-4.796-4.8-7.204-12,0-16.8,7.204-16.8,9.597-12,19.199-7.2,12,0,16.801,7.2,12,12,4.801,16.8,0,12-4.801,16.8-12,12m-28.801-7.2-19.199,0-9.597-4.8m-7.204-28.8,7.204-12,9.597-12,19.199-4.8,12,0,16.801,4.8,12,12,4.801,12m-81.602,86.4,81.602,0m-81.602,4.8,81.602,0m-45.602,0-19.199,7.2-9.597,12-7.204,9.6,0,19.2,7.204,4.8,4.796,0,4.801-4.8-4.801-7.2-4.796,7.2m-7.204-69.6,0,21.6m81.602-21.6,0,40.8m-81.602,74.4,122.4,0m-122.4,4.8,122.4,0m-105.6,0-9.597,12-7.204,12,0,12,7.204,16.8,9.597,12,19.199,4.8,12,0,16.801-4.8,12-12,4.801-16.8,0-12-4.801-12-12-12m-64.801,36,7.204,12,9.597,9.6,19.199,7.2,12,0,16.801-7.2,12-9.6,4.801-12m-81.602-57.6,0,21.6m122.4-21.6,0,40.8m-122.4,120,7.204-16.8,9.597-12,19.199-4.8,12,0,16.801,4.8,12,12,4.801,16.8,0,12-4.801,16.8-12,12-16.801,4.8-12,0-19.199-4.8-9.597-12-7.204-16.8,0-12,7.204-12,9.597-12,19.199-4.8,12,0,16.801,4.8,12,12,4.801,12m0,12-4.801,12-12,12-16.801,4.8-12,0-19.199-4.8-9.597-12-7.204-12m-40.796,81.6,122.4,0m-122.4,4.8,122.4,0m-122.4-24,0,24m122.4-24,0,40.8m-69.602,40.8,4.801,0,0-4.8-4.801,0-4.796,4.8-7.204,12,0,24,7.204,9.6,4.796,7.2,12,4.8,40.801,0,12,7.2,4.801,4.8m-69.602-16.8,52.801,0,12,4.8,4.801,12,0,4.8m-57.602-21.6,4.801-7.2,7.199-33.6,4.801-16.8,12-7.2,12,0,12,7.2,4.801,16.8,0,16.8-4.801,12-12,12m-28.801-40.8,4.801-12,12-4.8,12,0,12,4.8,4.801,12m-122.4,103.2,98.398,0,19.199,7.2,4.801,9.6,0,12-4.801,12-12,7.2m-105.6-40.8,98.398,0,19.199,4.8,4.801,4.8m-81.602-33.6,0,45.6m-40.796,57.6,7.199-4.8,4.801,4.8-4.801,7.2-7.199-7.2m40.796,0,81.602,0m-81.602,7.2,81.602,0m-81.602-24,0,24m81.602-24,0,40.8m-81.602,62.4,7.204-16.8,9.597-12,19.199-4.8,12,0,16.801,4.8,12,12,4.801,16.8,0,12-4.801,16.8-12,12-16.801,7.2-12,0-19.199-7.2-9.597-12-7.204-16.8,0-12,7.204-9.6,9.597-12,19.199-7.2,12,0,16.801,7.2,12,12,4.801,9.6m0,12-4.801,12-12,12-16.801,4.8-12,0-19.199-4.8-9.597-12-7.204-12m0,81.6,81.602,0m-81.602,4.8,81.602,0m-64.801,0-9.597,12-7.204,16.8,0,12,7.204,16.8,9.597,7.2,64.801,0m-81.602-24,7.204,12,9.597,4.8,64.801,0m-81.602-79.2,0,21.6m81.602-21.6,0,40.8m0,21.6,0,40.8m-115.2,160.8,4.801-4.8,7.199,4.8-7.199,7.2-4.801,0-7.199-7.2,0-9.6,7.199-12,12-7.2,103.2,0m-122.4,19.2,7.199-7.2,12-4.8,103.2,0m-81.602-24,0,45.6m81.602-45.6,0,40.8m-81.602,52.8,64.801,0,12,4.8,4.801,16.8,0,12-4.801,16.8-12,12m-64.801-57.6,64.801,0,12,7.2,4.801,9.6m-81.602,40.8,81.602,0m-81.602,7.2,81.602,0m-81.602-86.4,0,21.6m0,40.8,0,24m81.602-7.2,0,24m-81.602,40.8,81.602,0m-81.602,4.8,81.602,0m-64.801,0-9.597,12-7.204,16.8,0,12,7.204,16.8,9.597,7.2,64.801,0m-81.602-24,7.204,12,9.597,4.8,64.801,0m-81.602-81.6,0,24m81.602-24,0,40.8m0,24,0,40.8m-64.801,98.4,7.199-7.2,4.801,7.2-4.801,4.8-7.199,0-9.597-12-7.204-12,0-16.8,7.204-16.8,9.597-12,19.199-4.8,12,0,16.801,4.8,12,12,4.801,16.8,0,12-4.801,16.8-12,12m-64.801-40.8,7.204-12,9.597-9.6,19.199-7.2,12,0,16.801,7.2,12,9.6,4.801,12m-122.4,86.4,98.398,0,19.199,7.2,4.801,12"/>
    <path d="m528,5354.4,0,9.6-4.801,12-12,7.2m-105.6-40.8,98.398,0,19.199,4.8,4.801,7.2m-81.602-36,0,45.6m-40.796,57.6,7.199-4.8,4.801,4.8-4.801,7.2-7.199-7.2m40.796,0,81.602,0m-81.602,7.2,81.602,0m-81.602-24,0,24m81.602-24,0,40.8m-81.602,64.8,7.204-19.2,9.597-9.6,19.199-7.2,12,0,16.801,7.2,12,9.6,4.801,19.2,0,9.6-4.801,19.2-12,9.6-16.801,7.2-12,0-19.199-7.2-9.597-9.6-7.204-19.2,0-9.6,7.204-12,9.597-12,19.199-4.8,12,0,16.801,4.8,12,12,4.801,12m0,9.6-4.801,12-12,12-16.801,4.8-12,0-19.199-4.8-9.597-12-7.204-12m0,81.6,81.602,0m-81.602,4.8,81.602,0m-64.801,0-9.597,12-7.204,19.2,0,9.6,7.204,19.2,9.597,4.8,64.801,0m-81.602-24,7.204,12,9.597,7.2,64.801,0m-81.602-81.6,0,21.6m81.602-21.6,0,40.8m0,21.6,0,40.8"/>
    <path d="m4053.6,6338.4,0-122.4m7.2,122.4,0-122.4m-24,122.4,40.8,0m-40.8-122.4,86.4,0,0,36-4.8-36m40.8,69.6,0-4.8-7.2,0,0,4.8,7.2,4.8,9.6,7.2,24,0,12-7.2,4.8-4.8,7.2-12,0-40.8,4.8-12,7.2-4.8m-19.2,69.6,0-52.8,7.2-12,12-4.8,4.8,0m-24,57.6-4.8-4.8-36-7.2-16.8-4.8-4.8-12,0-12,4.8-12,16.8-4.8,19.2,0,12,4.8,9.6,12m-40.8,28.8-9.6-4.8-7.2-12,0-12,7.2-12,9.6-4.8m105.6,81.6,0-81.6m4.8,81.6,0-81.6m0,64.8,12,9.6,16.8,7.2,12,0,16.8-7.2,7.2-9.6,0-64.8m-24,81.6,12-7.2,4.8-9.6,0-64.8m-79.2,81.6,21.6,0m-21.6-81.6,38.4,0m24,0,40.8,0m98.4,64.8-7.2-7.2,7.2-4.8,4.8,4.8,0,7.2-12,9.6-9.6,7.2-19.2,0-16.8-7.2-12-9.6-4.8-19.2,0-9.6,4.8-19.2,12-12,16.8-4.8,12,0,16.8,4.8,12,12m-40.8,64.8-9.6-7.2-12-9.6-7.2-19.2,0-9.6,7.2-19.2,12-12,9.6-4.8m139.2,81.6-62.4-81.6m69.6,81.6-64.8-81.6m0,81.6-4.8-24,0,24,69.6,0m-69.6-81.6,69.6,0,0,24-7.2-24m74.4,81.6-16.8-7.2-12-9.6-4.8-19.2,0-9.6,4.8-19.2,12-12,16.8-4.8,12,0,16.8,4.8,12,12,7.2,19.2,0,9.6-7.2,19.2-12,9.6-16.8,7.2-12,0-9.6-7.2-12-9.6-7.2-19.2,0-9.6,7.2-19.2,12-12,9.6-4.8m12,0,12,4.8,12,12,4.8,19.2,0,9.6-4.8,19.2-12,9.6-12,7.2m127.2-12,7.2,12,0-24-7.2,12-4.8,4.8-12,7.2-24,0-9.6-7.2-7.2-4.8,0-12,7.2-4.8,9.6-7.2,28.8-9.6,12-7.2,7.2-4.8m-64.8,40.8,7.2-7.2,9.6-4.8,28.8-12,12-4.8,7.2-7.2,0-16.8-7.2-7.2-12-4.8-21.6,0-12,4.8-4.8,7.2-7.2,12,0-24,7.2,12m144,98.4,0-110.4m4.8,122.4,0-122.4m0,122.4-62.4-86.4,91.2,0m-50.4-36,38.4,0"/>
    <path d="m1068,3290.4,432,0"/>
    <path d="m1500,3290.4,55.2,0,2.4-2.4,24,0,4.8-2.4,9.6,0,2.4-2.4,14.4,0,4.8-2.4,4.8,0,4.8-2.4,9.6,0,4.8-2.4,4.8,0,2.4-2.4,4.8,0,4.8-2.4,4.8,0,4.8-2.4,9.6,0,4.8-2.4,4.8,0,2.4-2.4,4.8,0,4.8-2.4,4.8,0,4.8-2.4,4.8,0,4.8-2.4,4.8,0,4.8-2.4,2.4,0,4.8-2.4,4.8,0,4.8-2.4,4.8,0,4.8-2.4,9.6,0,4.8-2.4,9.6,0,2.4-2.4,14.4,0,4.8-2.4,60,0,4.8,2.4,7.2,0,4.8,2.4,9.6,0,4.8,2.4,4.8,2.4,4.8,0,4.8,2.4,4.8,0,2.4,2.4,4.8,2.4,4.8,2.4,4.8,2.4,4.8,2.4,4.8,2.4,4.8,0,4.8,4.8,4.8,2.4,2.4,2.4,4.8,2.4,4.8,2.4,4.8,2.4,4.8,4.8,4.8,2.4,4.8,2.4,4.8,4.8,4.8,2.4,4.8,4.8,2.4,2.4,4.8,4.8,4.8,2.4,4.8,4.8,4.8,4.8,4.8,2.4,4.8,4.8,4.8,4.8,4.8,4.8,4.8,2.4,2.4,4.8,4.8,4.8,4.8,4.8,4.8,4.8,4.8,2.4,4.8,4.8,4.8,4.8,4.8,4.8,4.8,4.8,2.4,4.8,4.8,4.8,4.8,4.8,4.8,2.4,4.8,4.8,4.8,4.8,4.8,4.8,4.8,4.8,4.8,4.8,4.8,2.4,2.4,4.8,4.8,4.8,4.8,2.4,4.8,4.8,4.8,4.8,4.8,2.4,4.8,4.8,4.8,2.4,4.8,4.8,4.8,2.4,2.4,2.4,4.8,4.8,4.8,2.4,4.8,2.4,4.8,2.4,4.8,2.4,4.8,2.4,4.8,2.4,4.8,2.4,2.4,2.4,4.8,0,4.8,2.4,4.8,0,4.8,2.4,31.2,0,4.8-2.4,4.8,0,4.8-2.4,4.8-2.4,4.8,0,4.8-2.4,4.8-2.4,2.4-4.8,4.8-2.4,4.8-2.4,4.8-4.8,4.8-2.4,4.8-4.8,4.8-4.8,4.8-4.8,4.8-4.8,4.8-4.8,2.4-7.2,4.8-4.8,4.8-7.2,4.8-4.8,4.8-7.2,4.8-7.2,4.8-7.2,4.8-7.2,4.8-9.6,4.8-7.2,2.4-7.2,4.8-9.6,4.8-9.6,4.8-9.6,4.8-7.2,4.8-9.6,4.8-12,4.8-9.6,4.8-9.6,2.4-9.6,4.8-12,4.8-9.6,4.8-12,4.8-12,4.8-9.6,4.8-12,4.8-12,4.8-12,4.8-12,2.4-12,4.8-12,4.8-12,4.8-12,4.8-12,4.8-14.4,4.8-12,4.8-12,4.8-12,4.8-12,2.4-14.4,4.8-12,4.8-12,4.8-12,4.8-12,4.8-12,4.8-12,4.8-14.4,4.8-9.6,2.4-12,4.8-12,4.8-12,4.8-12,4.8-9.6,4.8-12,4.8-9.6,4.8-12,4.8-9.6,4.8-9.6,2.4-9.6,4.8-9.6,4.8-9.6,4.8-7.2,4.8-9.6,4.8-7.2,4.8-7.2,4.8-7.2,4.8-4.8,4.8-7.2,2.4-4.8,4.8-7.2,4.8-4.8,4.8-2.4,4.8-4.8,4.8-2.4,4.8-2.4,4.8-2.4,4.8-2.4,16.8,0,4.8,2.4,4.8,2.4,4.8,2.4,4.8,2.4,4.8,4.8,4.8,4.8,2.4,4.8,4.8,7.2,4.8,7.2,4.8,7.2,4.8,9.6,4.8,7.2,4.8,9.6,4.8,12,4.8,12,4.8,12,2.4,12,4.8,14.4,4.8,14.4,4.8,14.4,4.8,16.8,4.8,16.8,4.8,16.8,4.8,19.2,4.8,19.2,2.4,19.2,4.8,19.2,4.8,21.6,4.8,24,4.8,21.6,4.8,24,4.8,24,4.8,26.4"/>
    <path d="m2865.6,3153.6,4.8,26.4,4.8,26.4,2.4,26.4,4.8,28.8,4.8,28.8,4.8,28.8,4.8,31.2,4.8,31.2,4.8,31.2,4.8,33.6,4.8,31.2,4.8,33.6,2.4,36,4.8,33.6,4.8,36,4.8,36,4.8,36,4.8,38.4,4.8,38.4,4.8,38.4,4.8,38.4,2.4,38.4,4.8,40.8,4.8,38.4,4.8,40.8,4.8,43.2,4.8,40.8,4.8,40.8,4.8,43.2,4.8,40.8,4.8,43.2,2.4,43.2,4.8,43.2,4.8,43.2,4.8,45.6,4.8,43.2,4.8,43.2,4.8,45.6,4.8,43.2,4.8,45.6,2.4,43.2,4.8,45.6,4.8,43.2,4.8,45.6,4.8,43.2,4.8,45.6,4.8,43.2,4.8,45.6,4.8,43.2,4.8,43.2,2.4,45.6,4.8,43.2,4.8,43.2,4.8,43.2,4.8,40.8,4.8,43.2,4.8,40.8,4.8,43.2,4.8,40.8,4.8,40.8,2.4,40.8,4.8,38.4,4.8,38.4,4.8,40.8,4.8,36,4.8,38.4,4.8,36,4.8,36,4.8,36,2.4,36,4.8,33.6,4.8,33.6,4.8,33.6,4.8,31.2,4.8,31.2,4.8,31.2,4.8,28.8,4.8,28.8,4.8,26.4,2.4,28.8,4.8,26.4,4.8,24,4.8,24,4.8,24,4.8,21.6,4.8,21.6,4.8,19.2,4.8,19.2,4.8,19.2,2.4,16.8,4.8,16.8,4.8,14.4,4.8,14.4,4.8,12,4.8,12,4.8,9.6,4.8,9.6,4.8,9.6,2.4,7.2,4.8,7.2,4.8,4.8,4.8,2.4,4.8,4.8,4.8,0,4.8,2.4,4.8-2.4,4.8,0,4.8-4.8,2.4-2.4,4.8-4.8,4.8-7.2,4.8-7.2,4.8-9.6,4.8-9.6,4.8-9.6,4.8-12,4.8-12,4.8-14.4,2.4-14.4,4.8-16.8,4.8-16.8,4.8-19.2,4.8-19.2,4.8-19.2,4.8-21.6,4.8-21.6,4.8-24,2.4-24,4.8-24,4.8-26.4,4.8-28.8,4.8-26.4,4.8-28.8,4.8-28.8,4.8-31.2,4.8-31.2,4.8-31.2,2.4-33.6,4.8-33.6,4.8-33.6,4.8-36,4.8-36,4.8-36,4.8-36,4.8-38.4,4.8-36,4.8-40.8,2.4-38.4,4.8-38.4,4.8-40.8,4.8-40.8,4.8-40.8,4.8-43.2,4.8-40.8,4.8-43.2,4.8-40.8,2.4-43.2,4.8-43.2,4.8-43.2,4.8-45.6,4.8-43.2,4.8-43.2,4.8-45.6,4.8-43.2,4.8-45.6,4.8-43.2,2.4-45.6,4.8-43.2,4.8-45.6,4.8-43.2,4.8-45.6,4.8-43.2,4.8-45.6,4.8-43.2,4.8-43.2,4.8-45.6,2.4-43.2,4.8-43.2,4.8-43.2,4.8-43.2,4.8-40.8,4.8-43.2,4.8-40.8,4.8-40.8,4.8-43.2,2.4-40.8,4.8-38.4,4.8-40.8,4.8-38.4,4.8-38.4,4.8-38.4,4.8-38.4,4.8-38.4,4.8-36,4.8-36,2.4-36,4.8-33.6,4.8-36,4.8-33.6,4.8-31.2,4.8-33.6,4.8-31.2,4.8-31.2,4.8-31.2,4.8-28.8,2.4-28.8,4.8-28.8,4.8-26.4,4.8-26.4,4.8-26.4,4.8-26.4,4.8-24,4.8-24,4.8-21.6,2.4-24,4.8-21.6,4.8-19.2,4.8-19.2,4.8-19.2,4.8-19.2,4.8-16.8,4.8-16.8,4.8-16.8,4.8-14.4,2.4-14.4,4.8-14.4,4.8-12,4.8-12,4.8-12,4.8-12,4.8-9.6,4.8-7.2,4.8-9.6,2.4-7.2,4.8-7.2,4.8-7.2,4.8-4.8,4.8-4.8,4.8-4.8,4.8-2.4,4.8-2.4,4.8-2.4,4.8-2.4,16.8,0,4.8,2.4,4.8,2.4,4.8,2.4,4.8,2.4,4.8,4.8,4.8,2.4,2.4,4.8,4.8,7.2,4.8,4.8,4.8,7.2,4.8,4.8,4.8,7.2,4.8,7.2,4.8,7.2,4.8,9.6,2.4,7.2,4.8,9.6,4.8,9.6,4.8,9.6,4.8,9.6,4.8,9.6,4.8,12,4.8,9.6,4.8,12,4.8,9.6,2.4,12,4.8,12,4.8,12,4.8,12,4.8,9.6,4.8,14.4,4.8,12,4.8,12,4.8,12,4.8,12,2.4,12,4.8,12,4.8,14.4,4.8,12,4.8,12,4.8,12,4.8,12,4.8,14.4,4.8,12,2.4,12,4.8,12,4.8,12,4.8,12,4.8,12,4.8,12,4.8,12,4.8,12,4.8,9.6"/>
    <path d="m4231.2,3235.2,4.8,12,2.4,12,4.8,9.6,4.8,12,4.8,9.6,4.8,9.6,4.8,9.6,4.8,12,4.8,9.6,4.8,7.2,4.8,9.6,2.4,9.6,4.8,9.6,4.8,7.2,4.8,7.2,4.8,9.6,4.8,7.2,4.8,7.2,4.8,7.2,4.8,7.2,2.4,4.8,4.8,7.2,4.8,4.8,4.8,7.2,4.8,4.8,4.8,4.8,4.8,4.8,4.8,4.8,4.8,4.8,4.8,2.4,2.4,4.8,4.8,2.4,4.8,2.4,4.8,4.8,4.8,2.4,4.8,2.4,4.8,0,4.8,2.4,4.8,2.4,4.8,0,2.4,2.4,33.6,0,4.8-2.4,2.4,0,4.8-2.4,4.8,0,4.8-2.4,4.8-2.4,4.8-2.4,4.8-2.4,4.8-2.4,4.8-2.4,4.8-2.4,2.4-2.4,4.8-4.8,4.8-2.4,4.8-2.4,4.8-4.8,4.8-2.4,4.8-4.8,4.8-2.4,4.8-4.8,4.8-4.8,2.4-2.4,4.8-4.8,4.8-4.8,4.8-2.4,4.8-4.8,4.8-4.8,4.8-4.8,4.8-4.8,4.8-4.8,2.4-2.4,4.8-4.8,4.8-4.8,4.8-4.8,4.8-4.8,4.8-4.8,4.8-4.8,4.8-4.8,4.8-2.4,4.8-4.8,2.4-4.8,4.8-4.8,4.8-4.8,4.8-2.4,4.8-4.8,4.8-4.8,4.8-4.8,4.8-2.4,4.8-4.8,4.8-4.8,2.4-2.4,4.8-4.8,4.8-2.4,4.8-4.8,4.8-2.4,4.8-4.8,4.8-2.4,4.8-2.4,4.8-4.8,2.4-2.4,4.8-2.4,4.8-2.4,4.8-2.4,4.8-2.4,4.8-4.8,4.8,0,4.8-2.4,4.8-2.4,4.8-2.4,2.4-2.4,4.8-2.4,4.8-2.4,4.8,0,4.8-2.4,4.8,0,4.8-2.4,4.8-2.4,7.2,0,4.8-2.4,9.6,0,4.8-2.4,60,0,4.8,2.4,12,0,4.8,2.4,9.6,0,4.8,2.4,9.6,0,4.8,2.4,2.4,0,4.8,2.4,4.8,0,4.8,2.4,4.8,0,4.8,2.4,4.8,0,4.8,2.4,4.8,0,4.8,2.4,2.4,0,4.8,2.4,4.8,0,4.8,2.4,4.8,0,4.8,2.4,9.6,0,4.8,2.4,4.8,0,2.4,2.4,4.8,0,4.8,2.4,4.8,0,4.8,2.4,9.6,0,4.8,2.4,4.8,0,2.4,2.4,14.4,0,4.8,2.4,9.6,0,4.8,2.4,21.6,0,4.8,2.4,465.6,0"/>
    <path d="m5596.8,3290.4,21.6,0"/>
   </g>
  </g>
  <g transform="matrix(0.62129984,0,0,-0.62129984,344.9563,676.77622)">
   <g stroke-linejoin="round" transform="scale(0.1,0.1)" stroke="#000" stroke-linecap="butt" stroke-miterlimit="10" stroke-width="6.66666985" fill="none">
    <path d="m1068,2316,4550.4,0,0,4550.4-4550.4,0,0-4550.4,4550.4,0m-4550.4,0,4550.4,0" stroke-dasharray="none"/>
    <path d="m1068,2316,0,122.4" stroke-dasharray="none"/>
    <path d="m1060.8,2210.4-16.8-4.8-12-19.2-4.8-28.8,0-16.8,4.8-28.8,12-16.8,16.8-7.2,12,0,16.8,7.2,12,16.8,7.2,28.8,0,16.8-7.2,28.8-12,19.2-16.8,4.8-12,0-12-4.8-4.8-7.2-4.8-12-7.2-28.8,0-16.8,7.2-28.8,4.8-12,4.8-4.8,12-7.2m12,0,12,7.2,4.8,4.8,7.2,12,4.8,28.8,0,16.8-4.8,28.8-7.2,12-4.8,7.2-12,4.8" stroke-dasharray="none"/>
    <path d="m1296,2316,0,60m225.6-60,0,60m228-60,0,60m228-60,0,122.4" stroke-dasharray="none"/>
    <path d="m1884,2210.4-16.8-4.8-12-19.2-4.8-28.8,0-16.8,4.8-28.8,12-16.8,16.8-7.2,12,0,16.8,7.2,12,16.8,7.2,28.8,0,16.8-7.2,28.8-12,19.2-16.8,4.8-12,0-9.6-4.8-7.2-7.2-4.8-12-7.2-28.8,0-16.8,7.2-28.8,4.8-12,7.2-4.8,9.6-7.2m12,0,12,7.2,4.8,4.8,7.2,12,4.8,28.8,0,16.8-4.8,28.8-7.2,12-4.8,7.2-12,4.8m81.6-110.4-4.8-4.8,4.8-7.2,4.8,7.2-4.8,4.8m52.8,86.4,4.8-4.8-4.8-7.2-7.2,7.2,0,4.8,7.2,12,4.8,7.2,16.8,4.8,24,0,16.8-4.8,7.2-7.2,4.8-12,0-12-4.8-9.6-19.2-12-28.8-12-12-4.8-9.6-12-7.2-16.8,0-19.2m52.8,122.4,12-4.8,4.8-7.2,7.2-12,0-12-7.2-9.6-16.8-12-24-12m-28.8-40.8,7.2,7.2,9.6,0,28.8-12,19.2,0,12,4.8,4.8,7.2m-64.8,0,28.8-19.2,24,0,7.2,7.2,4.8,12,0,9.6" stroke-dasharray="none"/>
    <path d="m2205.6,2316,0,60m228-60,0,60m225.6-60,0,60m228-60,0,122.4" stroke-dasharray="none"/>
    <path d="m2796,2210.4-19.2-4.8-9.6-19.2-7.2-28.8,0-16.8,7.2-28.8,9.6-16.8,19.2-7.2,12,0,16.8,7.2,12,16.8,4.8,28.8,0,16.8-4.8,28.8-12,19.2-16.8,4.8-12,0-12-4.8-7.2-7.2-4.8-12-4.8-28.8,0-16.8,4.8-28.8,4.8-12,7.2-4.8,12-7.2m12,0,9.6,7.2,7.2,4.8,4.8,12,7.2,28.8,0,16.8-7.2,28.8-4.8,12-7.2,7.2-9.6,4.8m79.2-110.4-4.8-4.8,4.8-7.2,7.2,7.2-7.2,4.8m98.4,98.4,0-110.4m7.2,122.4,0-122.4m0,122.4-64.8-86.4,93.6,0m-52.8-36,40.8,0" stroke-dasharray="none"/>
    <path d="m3115.2,2316,0,60m228-60,0,60m228-60,0,60m228-60,0,122.4" stroke-dasharray="none"/>
    <path d="m3705.6,2210.4-16.8-4.8-12-19.2-4.8-28.8,0-16.8,4.8-28.8,12-16.8,16.8-7.2,12,0,16.8,7.2,12,16.8,4.8,28.8,0,16.8-4.8,28.8-12,19.2-16.8,4.8-12,0-12-4.8-4.8-7.2-7.2-12-4.8-28.8,0-16.8,4.8-28.8,7.2-12,4.8-4.8,12-7.2m12,0,12,7.2,4.8,4.8,4.8,12,7.2,28.8,0,16.8-7.2,28.8-4.8,12-4.8,7.2-12,4.8m81.6-110.4-7.2-4.8,7.2-7.2,4.8,7.2-4.8,4.8m115.2,93.6-7.2-7.2,7.2-4.8,4.8,4.8,0,7.2-4.8,12-12,4.8-16.8,0-19.2-4.8-9.6-12-7.2-12-4.8-24,0-33.6,4.8-16.8,12-12,16.8-7.2,12,0,16.8,7.2,12,12,4.8,16.8,0,4.8-4.8,16.8-12,12-16.8,7.2-4.8,0-19.2-7.2-9.6-12-7.2-16.8m36,81.6-12-4.8-12-12-4.8-12-7.2-24,0-33.6,7.2-16.8,9.6-12,12-7.2m12,0,12,7.2,12,12,4.8,16.8,0,4.8-4.8,16.8-12,12-12,7.2" stroke-dasharray="none"/>
    <path d="m4024.8,2316,0,60m228-60,0,60m228-60,0,60m228-60,0,122.4" stroke-dasharray="none"/>
    <path d="m4615.2,2210.4-16.8-4.8-12-19.2-4.8-28.8,0-16.8,4.8-28.8,12-16.8,16.8-7.2,12,0,16.8,7.2,12,16.8,7.2,28.8,0,16.8-7.2,28.8-12,19.2-16.8,4.8-12,0-12-4.8-4.8-7.2-4.8-12-7.2-28.8,0-16.8,7.2-28.8,4.8-12,4.8-4.8,12-7.2m12,0,12,7.2,4.8,4.8,7.2,12,4.8,28.8,0,16.8-4.8,28.8-7.2,12-4.8,7.2-12,4.8m81.6-110.4-7.2-4.8,7.2-7.2,4.8,7.2-4.8,4.8m74.4,110.4-16.8-4.8-7.2-12,0-19.2,7.2-9.6,16.8-7.2,24,0,16.8,7.2" stroke-dasharray="none"/>
    <path d="m4824,2164.8,4.8,9.6,0,19.2-4.8,12-16.8,4.8-24,0-12-4.8-4.8-12,0-19.2,4.8-9.6,12-7.2m24,0,12,7.2,4.8,9.6,0,19.2-4.8,12-12,4.8m-24-52.8-16.8-4.8-7.2-7.2-4.8-9.6,0-24,4.8-12,7.2-4.8,16.8-7.2,24,0,16.8,7.2,4.8,4.8,7.2,12,0,24-7.2,9.6-4.8,7.2-16.8,4.8m-24,0-12-4.8-4.8-7.2-7.2-9.6,0-24,7.2-12,4.8-4.8,12-7.2m24,0,12,7.2,4.8,4.8,4.8,12,0,24-4.8,9.6-4.8,7.2-12,4.8" stroke-dasharray="none"/>
    <path d="m4936.8,2316,0,60m225.6-60,0,60m228-60,0,60m228-60,0,122.4" stroke-dasharray="none"/>
    <path d="m5594.4,2186.4,12,7.2,16.8,16.8,0-122.4m-4.8,117.6,0-117.6m-24,0,52.8,0" stroke-dasharray="none"/>
    <path d="m1068,6866.4,4550.4,0" stroke-dasharray="none"/>
    <path d="m1068,6866.4,0-122.4m228,122.4,0-62.4m225.6,62.4,0-62.4m228,62.4,0-62.4m228,62.4,0-122.4m228,122.4,0-62.4m228,62.4,0-62.4m225.6,62.4,0-62.4m228,62.4,0-122.4m228,122.4,0-62.4m228,62.4,0-62.4m228,62.4,0-62.4m228,62.4,0-122.4m225.6,122.4,0-62.4m228,62.4,0-62.4m228,62.4,0-62.4m228,62.4,0-122.4m228,122.4,0-62.4m225.6,62.4,0-62.4m228,62.4,0-62.4m228,62.4,0-122.4m-4550.4-4428v4550.4" stroke-dasharray="none"/>
    <path d="m1068,2316,60,0m-60,324,60,0m-60,326.4,122.4,0" stroke-dasharray="none"/>
    <path d="m897.6,3026.4-16.801-7.2-12-16.8-4.801-28.8,0-16.8,4.801-28.8,12-16.8,16.801-7.2,12,0,16.796,7.2,12,16.8,7.204,28.8,0,16.8-7.204,28.8-12,16.8-16.796,7.2-12,0-9.602-7.2-7.199-4.8-4.801-12-7.199-28.8,0-16.8,7.199-28.8,4.801-12,7.199-4.8,9.602-7.2m12,0,12,7.2,4.796,4.8,7.204,12,4.796,28.8,0,16.8-4.796,28.8-7.204,12-4.796,4.8-12,7.2" stroke-dasharray="none"/>
    <path d="m1068,3290.4,60,0m-60,326.4,60,0m-60,324,60,0m-60,324,60,0m-60,326.4,122.4,0" stroke-dasharray="none"/>
    <path d="m724.8,4651.2-16.801-4.8-12-16.8-4.801-28.8,0-19.2,4.801-28.8,12-16.8,16.801-4.8,12,0,16.801,4.8,12,16.8,4.796,28.8,0,19.2-4.796,28.8-12,16.8-16.801,4.8-12,0-12-4.8-4.801-7.2-4.801-9.6-7.199-28.8,0-19.2,7.199-28.8,4.801-12,4.801-4.8,12-4.8m12,0,12,4.8,4.801,4.8,7.199,12,4.801,28.8,0,19.2-4.801,28.8-7.199,9.6-4.801,7.2-12,4.8m81.597-110.4-7.199-4.8,7.199-4.8,4.801,4.8-4.801,4.8m57.602,110.4-12-57.6,12,12,16.801,4.8,16.801,0,16.796-4.8,12-12,7.204-16.8,0-12-7.204-16.8-12-12-16.796-4.8-16.801,0-16.801,4.8-7.199,4.8-4.801,12,0,7.2,4.801,4.8,7.199-4.8-7.199-7.2m40.801,57.6,12-4.8,12-12,4.796-16.8,0-12-4.796-16.8-12-12-12-4.8m-33.602,120,57.602,0m-57.602-4.8,28.801,0,28.801,4.8" stroke-dasharray="none"/>
    <path d="m1068,4915.2,60,0m-60,326.4,60,0m-60,324,60,0m-60,326.4,60,0m-60,324,122.4,0" stroke-dasharray="none"/>
    <path d="m880.8,6254.4,12,4.8,16.801,16.8,0-120m-4.801,115.2,0-115.2m-24,0,52.801,0" stroke-dasharray="none"/>
    <path d="m1068,6542.4,60,0m-60,324,60,0m4490.4-4550.4v4550.4" stroke-dasharray="none"/>
    <path d="m5618.4,2316-62.4,0m62.4,324-62.4,0m62.4,326.4-122.4,0m122.4,324-62.4,0m62.4,326.4-62.4,0m62.4,324-62.4,0m62.4,324-62.4,0m62.4,326.4-122.4,0m122.4,324-62.4,0m62.4,326.4-62.4,0m62.4,324-62.4,0m62.4,326.4-62.4,0m62.4,324-122.4,0m122.4,326.4-62.4,0m62.4,324-62.4,0" stroke-dasharray="none"/>
    <path d="m3228,1956-4.8-7.2,4.8-4.8,4.8,4.8,2.4,7.2-4.8,4.8-12,0-12-4.8-9.6-12-19.2-105.6m40.8,122.4-7.2-4.8-7.2-12-21.6-105.6m-7.2,81.6,48,0m-62.4-81.6,38.4,0" stroke-dasharray="none"/>
    <path d="M3364.8,1984.8,3261.6,1800m170.4,156-7.2-7.2,4.8-4.8,7.2,4.8,0,7.2-4.8,4.8-12,0-12-4.8-7.2-12-21.6-105.6m40.8,122.4-7.2-4.8-7.2-12-21.6-105.6m-4.8,81.6,45.6,0m-62.4-81.6,40.8,0" stroke-dasharray="none"/>
    <path d="m3496.8,1826.4,4.8,7.2,0-14.4-4.8,7.2-2.4,2.4-7.2,4.8-14.4,0-7.2-4.8-2.4-2.4,0-7.2,2.4-4.8,7.2-2.4,16.8-7.2,7.2-2.4,4.8-4.8m-38.4,24,2.4-2.4,7.2-4.8,16.8-7.2,7.2-2.4,4.8-2.4,0-12-4.8-2.4-7.2-4.8-14.4,0-4.8,4.8-4.8,2.4-2.4,7.2,0-14.4,2.4,7.2" stroke-dasharray="none"/>
    <path d="m384,4382.4,184.8,0m-163.2,52.8,122.4,0m-122.4,4.8,105.6,36m-105.6-40.8,122.4,40.8m-122.4,40.8,122.4-40.8m-122.4,40.8,122.4,0m-122.4,4.8,122.4,0m-122.4-103.2,0,21.6m0,76.8,0,21.6m122.4-120,0,33.6m0,45.6,0,40.8m-122.4,64.8,122.4,0m-122.4,4.8,122.4,0m-122.4-40.8,36-4.8-36,0,0,86.4,36,0-36-4.8m122.4-60v40.8m-122.4,64.8,122.4,0m-122.4,4.8,122.4,0m-86.398,36,45.597,0m-81.597-57.6,0,91.2,36,0-36-4.8m57.597-64.8,0,36m64.801-57.6,0,38.4m-144,88.8,184.8,0" stroke-dasharray="none"/>
    <path d="m1068,6216,91.2,0" stroke-dashoffset="0" stroke-dasharray="76.8, 57.6"/>
    <path d="m1159.2,6216,2184,0,45.6-3249.6,2229.6,0" stroke-dashoffset="0" stroke-dasharray="76.8, 57.6"/>
    <path d="m1068,6216,283.2,0,24-2.4,91.2,0,21.6-2.4,45.6,0,21.6-2.4,24,0,21.6-2.4,24,0,21.6-2.4,45.6,0,24-2.4,45.6,0,21.6-2.4,115.2,0,21.6,2.4,24,0,21.6,2.4,24,0,21.6,2.4,24,2.4,21.6,2.4,24,2.4,21.6,2.4,24,2.4,21.6,4.8,21.6,2.4,24,2.4,21.6,4.8,24,2.4,21.6,2.4,24,4.8,21.6,2.4,24,0,21.6,2.4,24,2.4,45.6,0,21.6-2.4,24-2.4,21.6-4.8,24-4.8,21.6-7.2,24-7.2,21.6-12,24-12,21.6-12,24-16.8,21.6-19.2,24-19.2,21.6-24,24-26.4,21.6-26.4,21.6-31.2,24-33.6,21.6-36,24-38.4,21.6-40.8,24-45.6,21.6-45.6,24-50.4,21.6-52.8,24-55.2,21.6-57.6,24-60,21.6-60,24-64.8,21.6-67.2,24-67.2,21.6-72,24-72,21.6-72,24-74.4,21.6-74.4,24-76.8,21.6-76.8,24-76.8,21.6-79.2,24-76.8,21.6-76.8,21.6-76.8,24-76.8,21.6-74.4,24-74.4,21.6-74.4,24-72,21.6-69.6,24-69.6,21.6-64.8,24-64.8,21.6-62.4,24-60,21.6-57.6,24-55.2,21.6-52.8,24-48,21.6-48,24-43.2,21.6-43.2,24-38.4,21.6-36,24-33.6,21.6-31.2,24-28.8,21.6-24,24-24,21.6-19.2,24-19.2,21.6-4.8,21.6,14.4,24,12,21.6,9.6,24,9.6,21.6,4.8,24,4.8,21.6,4.8,24,2.4,21.6,2.4,45.6,0,24-2.4,21.6,0,24-2.4,21.6-4.8,24-2.4,21.6-2.4,24-4.8,21.6-2.4,24-4.8,21.6-2.4,24-2.4,21.6-4.8,24-2.4,21.6-2.4,24-2.4,21.6-2.4,21.6-2.4,24-2.4,45.6,0,21.6-2.4,91.2,0,24,2.4,45.6,0,21.6,2.4,24,0,21.6,2.4,24,2.4,21.6,0,24,2.4,21.6,0,24,2.4,21.6,2.4,24,0,21.6,2.4,45.6,0,24,2.4,249.6,0,21.6-2.4,45.6,0,24-2.4,33.6,0" stroke-dasharray="none"/>
   </g>
  </g>
 </g>
</svg>
